name GIL01_fast5.mot
datacolumns 153
datarows 4
range 0.75833338 0.78333336
endheader

                time	           pelvis_tx	           pelvis_ty	           pelvis_tz	         pelvis_tilt	         pelvis_list	     pelvis_rotation	       hip_flexion_r	     hip_adduction_r	      hip_rotation_r	        knee_angle_r	       ankle_angle_r	    subtalar_angle_r	         mtp_angle_r	       hip_flexion_l	     hip_adduction_l	      hip_rotation_l	        knee_angle_l	       ankle_angle_l	    subtalar_angle_l	         mtp_angle_l	    lumbar_extension	      lumbar_bending	     lumbar_rotation	     ground_force_vx	     ground_force_vy	     ground_force_vz	     ground_force_px	     ground_force_py	     ground_force_pz	     ground_force_vx	     ground_force_vy	     ground_force_vz	     ground_force_px	     ground_force_py	     ground_force_pz	     ground_torque_x	     ground_torque_y	     ground_torque_z	     ground_torque_x	     ground_torque_y	     ground_torque_z	    ground_marker_px	    ground_marker_py	    ground_marker_pz	    ground_marker_px	    ground_marker_py	    ground_marker_pz	    ground_marker_px	    ground_marker_py	    ground_marker_pz	    ground_marker_px	    ground_marker_py	    ground_marker_pz	    ground_marker_px	    ground_marker_py	    ground_marker_pz	    ground_marker_px	    ground_marker_py	    ground_marker_pz	    ground_marker_px	    ground_marker_py	    ground_marker_pz	    ground_marker_px	    ground_marker_py	    ground_marker_pz	    ground_marker_px	    ground_marker_py	    ground_marker_pz	    ground_marker_px	    ground_marker_py	    ground_marker_pz	    ground_marker_px	    ground_marker_py	    ground_marker_pz	    ground_marker_px	    ground_marker_py	    ground_marker_pz	    ground_marker_px	    ground_marker_py	    ground_marker_pz	    ground_marker_px	    ground_marker_py	    ground_marker_pz	    ground_marker_px	    ground_marker_py	    ground_marker_pz	    ground_marker_px	    ground_marker_py	    ground_marker_pz	    ground_marker_px	    ground_marker_py	    ground_marker_pz	    ground_marker_px	    ground_marker_py	    ground_marker_pz	    ground_marker_px	    ground_marker_py	    ground_marker_pz	    ground_marker_px	    ground_marker_py	    ground_marker_pz	    ground_marker_px	    ground_marker_py	    ground_marker_pz	    ground_marker_px	    ground_marker_py	    ground_marker_pz	    ground_marker_px	    ground_marker_py	    ground_marker_pz	    ground_marker_px	    ground_marker_py	    ground_marker_pz	    ground_marker_px	    ground_marker_py	    ground_marker_pz	    ground_marker_px	    ground_marker_py	    ground_marker_pz	    ground_marker_px	    ground_marker_py	    ground_marker_pz	    ground_marker_px	    ground_marker_py	    ground_marker_pz	    ground_marker_px	    ground_marker_py	    ground_marker_pz	    ground_marker_px	    ground_marker_py	    ground_marker_pz	    ground_marker_px	    ground_marker_py	    ground_marker_pz	    ground_marker_px	    ground_marker_py	    ground_marker_pz	    ground_marker_px	    ground_marker_py	    ground_marker_pz	    ground_marker_px	    ground_marker_py	    ground_marker_pz	    ground_marker_px	    ground_marker_py	    ground_marker_pz	    ground_marker_px	    ground_marker_py	    ground_marker_pz	    ground_marker_px	    ground_marker_py	    ground_marker_pz	
          0.75833338	          1.43144941	          0.80265296	         -0.23110564	         -5.88294601	          2.38255024	          0.98883772	         26.78282166	         -4.07644367	          3.79008770	        -55.15068817	         -6.45385504	          0.00000000	          0.00000000	          8.92588043	          7.54461098	          0.10875922	        -13.77258205	          9.60360241	          0.00000000	          0.00000000	         -4.96996355	         -0.79508287	          1.84959984	          0.00000000	          0.00000000	          0.00000000	          0.87037640	          0.00000000	         -0.18473322	         -5.20993891	        320.90665074	          5.46830912	          1.36412915	          0.00000000	         -0.26576666	          0.00000000	          0.00000000	          0.00000000	          0.00000000	         -0.54278741	          0.00000000	          1.36952257	          0.73981607	         -0.23379457	          1.35682642	          0.73584211	         -0.16860831	          1.35634935	          0.74168760	         -0.29879177	          1.47910523	          0.41536832	         -0.15902831	          1.37351882	          0.42170414	         -0.27094749	          1.29685700	          0.14858985	         -0.17132603	          1.30698121	          0.06928919	         -0.25815842	          1.43144941	          0.80265296	         -0.23110564	          1.43181252	          0.79820323	         -0.13200641	          1.43108630	          0.80710274	         -0.33020487	          1.27801621	          0.85148358	         -0.19302641	          1.27433467	          0.85308939	         -0.24779572	          1.48130882	          0.41785026	         -0.10412855	          1.37380612	          0.41699487	         -0.32524288	          1.49015987	          0.40665677	         -0.19517855	          1.36526334	          0.39638031	         -0.23150089	          1.28717935	          0.15354674	         -0.13543701	          1.30533969	          0.06825822	         -0.29510760	          1.30560625	          0.14923871	         -0.19436948	          1.30657494	          0.06887413	         -0.22809024	          1.30999732	          1.21719563	         -0.23550409	          1.41827762	          1.15836155	         -0.19496994	          1.41539371	          1.16117859	         -0.27093428	          1.40207434	          1.15864706	         -0.23383032	          1.42986929	          1.07628429	         -0.23553145	          1.54815030	          0.56434095	         -0.05219933	          1.51339293	          0.54572833	         -0.28771558	          1.45454037	          0.58437997	         -0.08022091	          1.44229603	          0.59990084	         -0.32874101	          1.48529196	          0.50564563	         -0.09253343	          1.43433309	          0.51356292	         -0.32081202	          1.33222461	          0.25456053	         -0.05614524	          1.35470223	          0.18069991	         -0.37153149	          1.32405818	          0.22266318	         -0.13264273	          1.32402921	          0.14968155	         -0.29960379	          1.34745383	          0.06715102	         -0.14053857	          1.40718949	          0.03699132	         -0.26315331	
          0.76666671	          1.44191372	          0.80292290	         -0.23146391	         -5.87375450	          2.02309895	          1.20654154	         27.83302307	         -3.80144024	          4.06041336	        -53.25023651	         -5.45219421	          0.00000000	          0.00000000	          7.61231422	          7.29364300	          0.48447397	        -12.94540405	          9.86927986	          0.00000000	          0.00000000	         -5.23724508	         -0.35980147	          1.61170506	          0.00000000	          0.00000000	          0.00000000	          0.87178870	          0.00000000	         -0.18494519	         -3.72041237	        320.55752125	          4.31429461	          1.36965417	          0.00000000	         -0.26562738	          0.00000000	          0.00000000	          0.00000000	          0.00000000	         -0.67349170	          0.00000000	          1.38005686	          0.74026591	         -0.23337470	          1.36765933	          0.73639131	         -0.16823387	          1.36645949	          0.74161088	         -0.29843926	          1.49614525	          0.41779405	         -0.15938723	          1.37656569	          0.42160907	         -0.27052587	          1.32753956	          0.14162518	         -0.17082642	          1.30730569	          0.06946700	         -0.25795203	          1.44191372	          0.80292290	         -0.23146391	          1.44282472	          0.79895997	         -0.13260673	          1.44100273	          0.80688584	         -0.33032107	          1.28863037	          0.85182762	         -0.19214407	          1.28453279	          0.85331553	         -0.24687748	          1.49890006	          0.42042854	         -0.10451948	          1.37673974	          0.41687858	         -0.32481992	          1.50718832	          0.40993682	         -0.19553503	          1.36892235	          0.39654574	         -0.23095815	          1.31769454	          0.14614865	         -0.13492565	          1.30548131	          0.06850673	         -0.29489452	          1.33672869	          0.14277370	         -0.19385429	          1.30712438	          0.06896304	         -0.22786666	          1.32129419	          1.21786499	         -0.23534243	          1.42944431	          1.15837395	         -0.19494313	          1.42655480	          1.16134489	         -0.27086088	          1.41323292	          1.15880728	         -0.23377821	          1.44064069	          1.07631838	         -0.23564091	          1.56397617	          0.56866306	         -0.05311298	          1.51922989	          0.54325277	         -0.28742388	          1.46963823	          0.58689660	         -0.07996652	          1.44916761	          0.59889835	         -0.32799375	          1.50174117	          0.50871456	         -0.09274647	          1.43972623	          0.51273298	         -0.32024029	          1.35765338	          0.24945687	         -0.05592085	          1.35535932	          0.18081437	         -0.37129748	          1.35080040	          0.21715298	         -0.13232696	          1.32458663	          0.14975378	         -0.29925174	          1.38344860	          0.06428518	         -0.13978265	          1.40727150	          0.03691480	         -0.26313978	
          0.77500004	          1.45237279	          0.80308235	         -0.23176977	         -5.85818481	          1.65331209	          1.46906936	         28.75112534	         -3.54345751	          4.27422857	        -51.08451080	         -4.56731558	          0.00000000	          0.00000000	          6.28313065	          6.99358082	          0.85720068	        -12.08249569	         10.08908176	          0.00000000	          0.00000000	         -5.37506199	          0.03766191	          1.35730588	          0.00000000	          0.00000000	          0.00000000	          0.87322107	          0.00000000	         -0.18522618	         -2.33092136	        321.32950618	          3.63156945	          1.37503516	          0.00000000	         -0.26549652	          0.00000000	          0.00000000	          0.00000000	          0.00000000	         -0.82392279	          0.00000000	          1.39064670	          0.74056375	         -0.23289965	          1.37854958	          0.73682123	         -0.16775584	          1.37652218	          0.74142319	         -0.29797429	          1.51256156	          0.41981050	         -0.15975228	          1.37952447	          0.42152172	         -0.27019861	          1.35870457	          0.13447937	         -0.17035674	          1.30770206	          0.06969414	         -0.25775078	          1.45237279	          0.80308235	         -0.23176977	          1.45390940	          0.79959428	         -0.13307114	          1.45083618	          0.80657047	         -0.33046842	          1.29934239	          0.85200673	         -0.19108745	          1.29480755	          0.85341841	         -0.24577114	          1.51586998	          0.42259341	         -0.10492246	          1.37954795	          0.41680768	         -0.32449436	          1.52378368	          0.41307572	         -0.19634546	          1.37285674	          0.39650685	         -0.23059921	          1.34875846	          0.13850713	         -0.13442484	          1.30561531	          0.06881350	         -0.29468140	          1.36789656	          0.13599223	         -0.19344094	          1.30752707	          0.06912372	         -0.22762734	          1.33256936	          1.21806812	         -0.23547074	          1.44062924	          1.15827072	         -0.19494388	          1.43768811	          1.16134012	         -0.27083740	          1.42438900	          1.15878773	         -0.23375660	          1.45160878	          1.07623947	         -0.23574118	          1.57940841	          0.57239723	         -0.05405910	          1.52498496	          0.54073238	         -0.28724882	          1.48439872	          0.58911270	         -0.07981816	          1.45600903	          0.59779936	         -0.32736900	          1.51779401	          0.51136243	         -0.09321978	          1.44523346	          0.51179457	         -0.31980085	          1.38337243	          0.24385503	         -0.05565001	          1.35580540	          0.18102068	         -0.37115520	          1.37792015	          0.21120454	         -0.13205627	          1.32506955	          0.14987534	         -0.29897660	          1.41971254	          0.06151466	         -0.13914883	          1.40739548	          0.03685432	         -0.26315010	
          0.78333336	          1.46277058	          0.80312574	         -0.23191047	         -5.84558678	          1.24724221	          1.81329763	         29.54321289	         -3.27341843	          4.39743757	        -48.65523911	         -3.81612992	          0.00000000	          0.00000000	          4.98457527	          6.59669352	          1.17003429	        -11.23536110	         10.26950359	          0.00000000	          0.00000000	         -5.47907114	          0.41749418	          1.03775668	          0.00000000	          0.00000000	          0.00000000	          0.87472815	          0.00000000	         -0.18562897	         -1.03946056	        323.03013577	          3.52400769	          1.38017554	          0.00000000	         -0.26536401	          0.00000000	          0.00000000	          0.00000000	          0.00000000	         -0.96403015	          0.00000000	          1.40125883	          0.74066854	         -0.23225524	          1.38948059	          0.73715329	         -0.16699192	          1.38642418	          0.74111575	         -0.29721129	          1.52833772	          0.42139322	         -0.16014411	          1.38249636	          0.42142883	         -0.26995799	          1.39035439	          0.12725356	         -0.16990213	          1.30816305	          0.06997897	         -0.25756001	          1.46277058	          0.80312574	         -0.23191047	          1.46508455	          0.80012572	         -0.13331984	          1.46045661	          0.80612570	         -0.33050111	          1.31014502	          0.85204631	         -0.18986008	          1.30519283	          0.85339904	         -0.24450354	          1.53222418	          0.42429042	         -0.10535814	          1.38224518	          0.41680261	         -0.32426068	          1.53989530	          0.41584325	         -0.19734918	          1.37697995	          0.39624834	         -0.23080762	          1.38038933	          0.13073450	         -0.13391836	          1.30574489	          0.06918830	         -0.29447246	          1.39927363	          0.12905245	         -0.19303428	          1.30773091	          0.06943213	         -0.22739096	          1.34391773	          1.21802986	         -0.23556499	          1.45184100	          1.15806735	         -0.19500560	          1.44881237	          1.16118085	         -0.27088335	          1.43555415	          1.15863228	         -0.23379283	          1.46262932	          1.07603836	         -0.23585369	          1.59441507	          0.57553166	         -0.05504517	          1.53081167	          0.53821057	         -0.28737012	          1.49896741	          0.59099573	         -0.07997146	          1.46289051	          0.59667492	         -0.32701769	          1.53337407	          0.51370871	         -0.09388866	          1.45085216	          0.51076400	         -0.31974256	          1.40943706	          0.23785116	         -0.05531576	          1.35609937	          0.18132639	         -0.37108859	          1.40543175	          0.20486763	         -0.13180910	          1.32565367	          0.15015996	         -0.29879636	          1.45621955	          0.05891353	         -0.13864113	          1.40754724	          0.03679906	         -0.26317909	
